<svg width="80" height="64" viewBox="0 0 80 64" fill="none" xmlns="http://www.w3.org/2000/svg">
<g clip-path="url(#clip0_1_1040)">
<path d="M72 0H8C3.6 0 0 3.6 0 8V56C0 60.4 3.6 64 8 64H72C76.4 64 80 60.4 80 56V8C80 3.6 76.4 0 72 0ZM70.4 17L44.24 33.36C41.64 35 38.36 35 35.76 33.36L9.6 17C9.19891 16.7748 8.84767 16.4706 8.56755 16.1058C8.28743 15.741 8.08425 15.3231 7.9703 14.8775C7.85635 14.4319 7.83401 13.9677 7.90462 13.5132C7.97524 13.0587 8.13734 12.6233 8.38113 12.2332C8.62491 11.8432 8.9453 11.5066 9.3229 11.244C9.70051 10.9813 10.1275 10.798 10.578 10.7052C11.0285 10.6123 11.4931 10.6119 11.9438 10.7038C12.3945 10.7957 12.8219 10.9781 13.2 11.24L40 28L66.8 11.24C67.1781 10.9781 67.6055 10.7957 68.0562 10.7038C68.5069 10.6119 68.9715 10.6123 69.422 10.7052C69.8725 10.798 70.2995 10.9813 70.6771 11.244C71.0547 11.5066 71.3751 11.8432 71.6189 12.2332C71.8626 12.6233 72.0247 13.0587 72.0954 13.5132C72.166 13.9677 72.1436 14.4319 72.0297 14.8775C71.9157 15.3231 71.7126 15.741 71.4324 16.1058C71.1523 16.4706 70.8011 16.7748 70.4 17Z" fill="black"/>
</g>
<defs>
<clipPath id="clip0_1_1040">
<rect width="80" height="64" fill="white"/>
</clipPath>
</defs>
</svg>
