<svg width="64" height="64" viewBox="0 0 64 64" fill="none" xmlns="http://www.w3.org/2000/svg">
<path d="M59.2787 -0.00024592H4.72131C3.48344 -0.0128439 2.29113 0.466138 1.406 1.3316C0.52087 2.19706 0.015219 3.37831 0 4.61615V59.3939C0.0179713 60.6299 0.524832 61.8084 1.40966 62.6716C2.29449 63.5348 3.48524 64.0124 4.72131 63.9998H59.2787C60.5166 64.0096 61.7081 63.529 62.5928 62.663C63.4775 61.797 63.9834 60.616 64 59.3781V4.60041C63.9779 3.3662 63.4696 2.19058 62.5855 1.3291C61.7014 0.467607 60.5131 -0.0101196 59.2787 -0.00024592Z" fill="#0076B2"/>
<path d="M9.4741 23.9893H18.9744V54.5571H9.4741V23.9893ZM14.2269 8.77615C15.3165 8.77615 16.3817 9.09934 17.2876 9.70482C18.1936 10.3103 18.8996 11.1709 19.3163 12.1777C19.733 13.1845 19.8418 14.2922 19.6289 15.3609C19.4159 16.4295 18.8908 17.411 18.1199 18.1811C17.3491 18.9512 16.3671 19.4754 15.2983 19.6873C14.2294 19.8993 13.1218 19.7895 12.1154 19.3718C11.109 18.954 10.2491 18.2472 9.64444 17.3407C9.03982 16.4342 8.71765 15.3687 8.71869 14.2791C8.72008 12.8191 9.30102 11.4195 10.3339 10.3876C11.3667 9.35576 12.7669 8.77615 14.2269 8.77615Z" fill="white"/>
<path d="M24.9338 23.9893H34.0407V28.186H34.1666C35.4361 25.7834 38.5312 23.2496 43.1528 23.2496C52.7738 23.2286 54.5574 29.5604 54.5574 37.7703V54.5571H45.0571V39.685C45.0571 36.144 44.9941 31.5853 40.1207 31.5853C35.2472 31.5853 34.4184 35.4463 34.4184 39.4542V54.5571H24.9338V23.9893Z" fill="white"/>
</svg>
