<svg width="48" height="64" viewBox="0 0 48 64" fill="none" xmlns="http://www.w3.org/2000/svg">
<path d="M46.2285 12.2476L35.743 1.76216C34.6182 0.637376 33.0935 0 31.5063 0H5.99883C2.68698 0.0124976 0 2.69947 0 6.01133V58.0012C0 61.313 2.68698 64 5.99883 64H41.9918C45.3037 64 47.9906 61.313 47.9906 58.0012V16.4968C47.9906 14.9096 47.3533 13.3724 46.2285 12.2476ZM41.5044 16.0094H31.9938V6.49873L41.5044 16.0094ZM5.99883 58.0012V6.01133H25.9949V19.0088C25.9949 20.671 27.3322 22.0082 28.9943 22.0082H41.9918V58.0012H5.99883Z" fill="black"/>
</svg>
