<svg width="112" height="128" viewBox="0 0 112 128" fill="none" xmlns="http://www.w3.org/2000/svg">
<g clip-path="url(#clip0_50_315)">
<path d="M18.1474 55.9063C14.4134 57.6625 4.53196 65.5684 2.62877 67.9107C0.652312 70.2531 0.0666147 66.5932 2.11591 60.5178C3.72604 55.6132 7.82592 48.9521 14.7065 43.2429C18.7318 39.949 27.5892 35.191 33.0057 32.4095C34.1038 31.8233 48.3045 25.8216 60.9679 22.8203C62.066 22.5272 59.6504 24.6502 59.2841 25.8216C57.3809 31.3846 19.3907 55.2473 19.3907 55.2473L18.1474 55.9063ZM71.6548 123.029C72.3133 126.982 71.7281 127.275 67.6295 127.787C63.53 128.3 60.5287 126.762 59.431 125.738C58.3325 124.712 58.1135 122.444 59.2112 120.394C59.8706 119.077 60.5292 118.638 60.8955 117.027C61.261 115.49 61.554 115.124 61.8467 114.539C62.1393 114.026 62.213 113.513 62.2858 109.927C62.3591 106.34 62.2858 99.6056 62.6521 96.7512C63.0185 93.8232 75.6814 98.0683 75.6814 98.0683C75.6814 98.0683 72.6801 105.535 71.875 107.364C71.07 109.195 71.1432 112.708 71.1432 113.44C71.1432 114.172 70.8502 115.636 70.6304 115.709C70.4106 115.782 71.363 117.685 70.9234 118.784C70.6304 119.808 71.582 122.444 71.6548 123.029ZM76.4861 11.1085C76.0465 8.32694 76.4861 2.8363 77.0718 1.95884C78.9017 -0.530484 88.5637 -0.823117 90.6135 2.10494C91.4918 3.42243 91.4185 6.49659 91.2724 8.47304C91.1263 10.4495 90.6135 14.6951 90.5402 16.0862C90.4674 17.1111 79.8533 18.7208 77.5109 15.9397C76.852 15.2079 76.4861 11.1085 76.4861 11.1085ZM98.0064 115.928C102.472 119.15 105.912 119.735 108.181 120.906C110.45 122.078 109.865 124.347 106.058 125.006C102.984 125.591 98.153 124.42 94.9323 124.42C91.7116 124.42 84.538 124.786 82.6348 123.469C80.439 121.931 81.3901 119.077 81.3901 119.077C81.9763 117.467 83.4394 113.879 83.0003 110.951C82.5611 108.024 81.9754 106.413 80.8777 103.705C79.7796 100.997 78.9749 94.3356 79.9998 93.9693C81.0247 93.603 80.7316 93.9693 82.0491 94.2624C83.3666 94.5546 84.8306 94.9942 87.6854 94.9942C90.5402 94.9942 93.6876 94.5546 94.7857 94.3352C95.8839 94.1158 96.7622 93.8956 96.3959 96.1651C96.03 98.4342 94.9323 102.68 94.859 105.974C94.7857 109.268 94.7858 113.074 95.0056 113.733C95.2249 114.392 96.8355 115.124 98.0064 115.929" fill="black"/>
<path d="M82.3421 18.4281C74.2906 25.3824 58.6987 27.2847 35.5682 36.2154C29.6393 38.4845 13.8285 45.2918 10.0221 52.3925C22.8316 44.9996 27.5896 55.1741 28.6144 65.6412C29.5656 75.4498 34.4701 80.5741 47.0602 80.2806C60.0167 79.9884 63.9691 87.5275 67.5557 96.3849C74.5095 62.4933 85.636 55.9059 92.8092 50.1234C108.035 37.7523 89.2959 15.9393 82.3421 18.4281Z" fill="#88CE02"/>
<path d="M82.3421 18.4281C63.0175 25.1621 43.9128 26.8455 21.4408 40.6799C16.0975 43.9738 4.82492 51.44 2.62866 65.714C10.8267 56.6372 29.7849 45.2185 52.9891 37.972C64.7009 34.3117 73.2653 31.8966 83.6596 27.8699C82.9278 23.1852 82.9278 21.3553 82.3421 18.4272" fill="#88CE02"/>
<path d="M107.01 58.5408C107.01 58.5408 105.619 63.2988 102.838 64.8365C102.838 64.8365 100.788 65.5683 96.6893 63.2992C95.5179 62.6407 94.6395 60.3716 94.7124 59.6389C94.7856 57.8823 95.8838 57.0772 95.8838 57.0772C95.8838 57.0772 97.0552 55.1007 98.4455 55.174C99.8367 55.2473 102.179 55.4666 102.911 54.8077C103.569 54.0759 107.156 56.1252 107.01 58.5408ZM77.1449 12.4992C77.1449 12.4992 76.8523 16.2323 76.3399 18.5746C76.2666 19.0142 74.0708 19.2332 72.4602 19.8921C75.5344 28.6759 94.0539 28.6026 96.4699 24.2838C95.2985 23.4791 92.9562 22.2345 91.8585 21.7953C90.7599 21.3557 90.8332 21.429 90.7599 19.3797C90.6866 17.3304 90.5401 13.524 90.3936 12.4992C90.247 11.4743 78.9016 11.4739 77.1449 12.4992Z" fill="black"/>
<path d="M77.8767 12.4991C77.8767 12.4991 77.8767 14.6217 77.6569 16.671C77.5845 17.623 77.5112 18.2083 77.3647 18.9401C77.2914 19.3797 79.8536 21.1359 80.5854 25.0156C84.0991 32.8477 92.2243 28.9685 95.5911 25.2354C94.4202 24.4299 92.517 23.3322 90.3211 22.4538C89.223 22.0142 89.735 21.0631 89.6622 19.0138C89.5889 16.9641 89.2959 13.9627 89.1497 12.8646C89.0036 11.7665 79.6338 11.4738 77.8767 12.4991Z" fill="#EFEFEF"/>
<path d="M77.1449 12.4992C77.1449 12.4992 77.0717 13.8167 76.8523 15.354C77.8035 16.3051 79.0481 17.6231 80.0001 18.4281C80.6587 19.0143 82.2688 18.941 83.7333 18.941C85.0508 18.941 86.2217 19.0871 86.7342 18.7945C87.906 18.2083 89.5889 16.7447 90.5405 15.6466C90.4677 14.3291 90.3944 13.0849 90.3216 12.4992C90.2475 11.4739 78.9016 11.4739 77.1449 12.4992Z" fill="black"/>
<path d="M83.8061 18.0623C82.9273 18.0623 81.9025 17.989 81.0974 17.8425C80.7311 17.7692 80.3656 17.5498 80.0725 17.4033C79.5601 17.037 79.0477 16.5983 78.4628 16.1587C77.291 15.2803 77.2182 14.7679 77.2182 14.549C77.7306 9.93708 77.0716 6.05786 77.0716 6.05786C77.0716 6.05786 76.5588 4.08097 79.3407 3.56854C82.1223 3.05611 83.8056 2.98328 83.8056 2.98328C83.8056 2.98328 85.5627 2.98328 88.2706 3.56854C91.0525 4.0814 90.5401 6.05786 90.5401 6.05786C90.5401 6.05786 89.8811 9.93708 90.3936 14.549C90.3936 14.7679 90.3207 15.2803 89.1493 16.1587C88.1245 16.8909 87.3194 17.696 86.5143 17.8425C85.7088 17.989 84.684 18.0623 83.8061 18.0623Z" fill="black"/>
<path d="M83.8061 1.08008C78.9749 1.08008 78.0233 2.39757 76.6325 3.8616C76.3399 4.2275 76.5593 6.42332 77.0721 11.1085H77.7307C77.7307 11.1085 77.2911 9.79054 77.3643 8.25325C77.4376 6.71639 77.7307 6.78965 77.5109 6.42332C77.2178 5.98373 76.6325 5.25193 77.9505 4.52013C79.2675 3.78833 81.3173 5.10583 83.8061 5.17909C86.2946 5.10583 88.4176 3.78833 89.7351 4.52013C91.0526 5.25193 90.4669 5.98416 90.1747 6.42332C89.8816 6.86292 90.2475 6.71639 90.3208 8.25325C90.394 9.79011 89.9545 11.1085 89.9545 11.1085H90.6134C91.0526 6.42375 91.3452 4.37403 91.1258 4.0077C89.8812 2.39757 88.637 1.15291 83.8061 1.08008ZM107.01 58.7607C107.01 58.7607 105.619 63.2256 102.911 64.7629C102.325 64.4698 102.398 64.0311 101.886 63.3721C101.739 63.1528 101.227 63.0058 101.008 62.7864C100.788 62.5666 100.861 62.2007 100.495 61.9081C100.202 61.615 99.9828 61.8348 99.6898 61.615C99.3976 61.3228 99.3235 60.9565 99.1045 60.7376C98.958 60.591 98.3723 60.5178 98.2262 60.3712C97.8599 60.0049 94.6396 59.3464 94.7861 58.6141C95.0783 57.516 95.6645 56.7109 95.6645 56.7109C95.6645 56.7109 97.0552 54.6617 98.4456 54.7345C99.8363 54.8078 101.154 55.1008 101.886 54.4419C102.692 53.7096 107.23 56.4183 107.01 58.7602" fill="black"/>
<path d="M97.4943 26.4068C97.4943 26.4068 102.106 25.3086 105.253 28.31C108.401 31.3845 108.181 35.1905 107.23 37.5329C108.035 38.4844 109.499 41.1194 108.401 44.2673C113.232 48.3659 111.109 54.6616 106.79 58.8339C106.79 58.8339 105.766 55.0275 101.667 54.8077C101.813 53.3441 97.8602 52.1727 99.6902 48.3663C96.9086 47.7073 96.9819 45.8042 96.5427 43.4618C96.1764 41.1194 97.4943 26.4068 97.4943 26.4068Z" fill="black"/>
<path d="M95.8106 28.4565C95.8106 28.4565 101.154 25.7483 104.302 28.8229C107.449 31.897 106.57 35.2638 105.619 37.6062C106.424 38.5573 108.327 41.2665 107.156 44.4867C106.936 45.2189 105.326 45.2189 104.155 47.1221C107.082 45.4379 108.913 45.8775 109.572 48C110.596 51.294 108.327 55.2465 106.351 57.4427C106.351 57.3695 106.278 57.2962 106.278 57.2229C105.985 58.3215 105.619 60.4436 103.423 62.786C102.325 63.9574 101.446 63.8113 100.202 63.5182C98.7382 63.1519 98.2258 62.4929 96.1765 61.3956C95.0051 60.7367 95.6636 59.9312 95.6636 59.2727C95.6636 59.1261 95.8101 58.9063 96.0299 58.6141C96.1765 58.2478 96.6156 57.6625 97.2742 57.0036C97.2742 57.0036 98.2258 55.6861 99.6169 55.7589C101.008 55.8317 102.471 55.54 102.838 55.1736C102.838 52.6119 99.91 52.5382 100.934 48.1466C101.008 47.9268 101.374 47.5604 102.545 47.4143C100.788 47.048 99.9828 46.9747 98.7382 45.8042C97.8599 44.9991 97.2013 43.9743 96.9815 42.6568C96.5424 40.3877 95.8106 28.4565 95.8106 28.4565Z" fill="#EFEFEF"/>
<path d="M80.3657 23.8451C79.9261 23.2589 77.6574 20.3313 73.3386 19.1604C72.0939 18.794 71.2889 19.8189 70.0451 20.5511C69.6787 20.3313 68.0682 19.5995 67.1898 20.1115C66.3115 20.6235 65.7263 21.1364 64.8475 21.5023C64.4079 21.2825 63.2374 21.2825 62.2858 21.6488C61.3342 21.9414 59.8701 22.6 58.4794 24.5032C57.6011 27.651 73.9971 25.3082 73.9971 25.3082L80.3657 23.8451Z" fill="black"/>
<path d="M80.5122 23.845C78.1694 23.0395 78.5357 20.3313 73.3386 19.8921C72.3137 19.8189 71.6548 20.6239 70.923 21.1364C71.2893 21.5027 71.6548 22.0879 71.8746 22.6732C71.2156 21.9418 70.0446 20.9898 68.8728 20.77C67.7751 20.5511 67.0429 21.3562 65.8719 21.9418C66.0913 22.1608 66.3111 22.5271 66.6037 22.9667C65.5784 22.3077 64.8471 22.0884 63.4563 22.6004C62.5047 22.893 60.6748 23.6985 59.284 25.675C58.4057 28.8224 74.07 25.3086 74.07 25.3086L80.5122 23.845Z" fill="#88CE02"/>
<path d="M94.2736 25.0161C94.2736 25.0161 94.2736 24.211 94.2004 23.4792C94.2004 23.3327 93.6147 22.9663 93.6147 22.8202L93.4681 22.6737C93.4681 22.6737 94.6395 22.0152 95.5179 22.3811C96.469 22.6741 96.9815 23.9184 96.9815 23.9184C98.6653 23.3331 98.8114 23.9916 99.6169 24.87C101.374 24.5036 101.593 25.1626 102.691 26.7731C102.691 26.7731 101.374 26.5533 98.8118 26.9925C96.3229 27.358 94.2736 24.9428 94.2736 25.0161Z" fill="black"/>
<path d="M93.9806 24.6501C93.9806 24.6501 94.4197 24.2838 94.2732 24.2105C95.0783 23.7709 96.1764 23.2593 96.6888 24.6501C98.3722 24.064 98.592 24.8699 99.3971 25.7482C101.446 24.7966 101.592 25.9672 101.739 26.48C101.08 26.48 100.129 26.5533 98.8114 26.6994C96.3229 27.0657 93.9073 24.5764 93.9806 24.6501Z" fill="#88CE02"/>
<path d="M69.093 22.8202C69.093 22.8202 73.2652 24.2838 76.779 24.064C80.2927 23.7718 86.2949 23.4787 89.5152 25.3819C89.5152 25.3819 92.8092 24.2105 95.8837 25.0156C98.9583 25.8206 104.595 31.0911 102.911 36.6541C102.765 37.0204 101.813 37.6057 100.715 37.972C100.715 37.972 101.301 40.4609 100.276 42.5102C99.251 44.4867 96.9819 48.2931 96.9086 53.5635C96.8353 54.4418 96.6892 56.2717 96.5427 57.1496C90.8331 56.9307 82.0494 54.8073 73.4122 54.9542C73.485 54.0026 73.5583 53.4169 73.632 52.4653H73.8509C73.4113 50.0497 73.2652 48.8051 72.8261 46.9756C70.0445 45.2189 67.1161 43.1692 64.628 39.2895C62.2124 35.4099 69.093 22.8202 69.093 22.8202ZM97.3478 62.3472C97.3478 62.3472 101.886 78.5976 96.5427 85.4053C96.5427 85.4053 97.3478 88.5527 95.5178 91.9199C95.2248 93.3835 94.8584 94.7015 94.6395 96.1651C93.6879 102.241 92.0774 104.802 91.6382 114.538L87.2461 114.465C87.2461 114.465 86.7332 107.438 85.1964 103.705C84.3185 101.582 80.8776 98.7268 81.0245 95.8724C81.1711 93.6766 81.6098 91.8467 85.3433 88.9182C85.636 84.6731 81.3904 80.6469 82.0494 64.8361L97.3478 62.3472Z" fill="black"/>
<path d="M96.0304 61.6882C97.2018 69.1545 99.91 80.2073 95.0055 85.6242C95.2249 86.6491 95.3714 88.1131 95.0788 89.7961C94.9322 90.6744 94.6392 91.626 94.2737 92.6509C93.5415 94.4075 93.2484 96.9693 93.0291 98.5065C92.0775 104.582 92.0775 104.876 91.6383 114.611L87.2462 114.538C87.2462 114.538 86.7333 107.511 85.1965 103.777C84.3186 101.655 82.4882 99.8249 82.3421 96.9701C82.1956 94.7743 83.7329 90.3826 87.3932 90.5287C87.1734 81.6717 83.0739 83.4284 81.9762 64.9822L96.0304 61.6882ZM69.0931 22.8202C69.0931 22.8202 70.7036 23.3326 72.4603 23.4787C74.2169 23.6253 76.1206 23.4787 77.8035 23.4055C81.3173 23.1128 86.2946 22.7469 89.5886 24.6501C89.5886 24.6501 91.4185 24.064 93.3954 24.2105C94.2737 24.2838 95.152 25.0156 96.1769 25.3086C99.3976 26.1137 102.472 31.457 101.081 36.2886C100.934 36.655 99.9096 36.2886 98.7382 36.655C98.9576 37.6794 99.1045 40.0218 97.9331 42.5106C96.6889 44.9995 95.0783 48.2202 95.371 54.369C87.6854 54.0026 84.2449 53.4906 76.6321 53.1247C75.9732 50.416 75.534 47.7074 75.4607 46.317C76.486 45.8042 77.0709 45.3659 77.8768 44.4871C75.681 44.8534 74.8022 44.7069 73.4843 43.9742C72.1668 43.2424 69.8244 40.9001 68.653 39.3632C68.5069 39.2167 67.7023 41.6319 65.8724 41.7056C65.213 40.754 67.9945 38.0453 67.4821 37.0209C65.6526 33.2873 69.0931 22.8202 69.0931 22.8202Z" fill="#EFEFEF"/>
<path d="M96.6151 55.6132C96.6151 55.6132 96.7617 58.2482 96.7617 58.9067C96.7617 59.6389 97.3478 61.8343 97.4206 62.8596C96.6156 64.2504 93.1022 67.3978 86.7337 68.5692C80.4384 69.8867 72.0939 60.0048 72.0939 60.0048C72.3137 59.0532 73.0455 56.2717 73.5579 54.8077C73.6312 54.6612 73.7777 54.2953 73.7777 54.1492C74.4367 53.1976 96.6151 55.6132 96.6151 55.6132Z" fill="black"/>
<path d="M95.0054 55.833C95.0054 57.6625 95.2981 58.9805 95.5183 60.1514C95.8838 62.2744 96.469 63.6652 96.469 65.0559C96.469 69.3011 90.906 68.5693 86.2208 68.7158C79.926 70.0337 74.5828 60.1519 74.5828 60.1519C75.0215 58.468 75.3146 56.5653 75.9731 54.9543C76.0464 54.0764 76.1929 52.9783 76.2662 52.4658C85.196 52.4658 91.4913 52.9787 95.1515 53.3437C95.2981 54.1492 95.1515 55.54 95.0054 55.8326" fill="#EFEFEF"/>
<path d="M87.9783 65.2753C87.9783 65.2753 84.0987 56.6377 72.4597 59.2003C69.6786 67.032 65.9451 76.0359 68.3612 85.7712C65.9451 89.0652 63.1636 90.8956 63.1636 96.9706C63.1636 103.046 63.4566 104.071 63.4566 104.071L72.0206 104.511C72.0206 104.511 74.8021 100.924 75.8998 97.0443C76.1929 95.9457 76.4859 93.9697 76.2661 91.7006C76.5588 91.2615 77.803 90.237 77.9499 88.2606C77.9499 88.2606 82.1218 86.0647 84.5379 80.7211C86.8074 75.889 86.2212 71.7167 87.9779 65.2749" fill="black"/>
<path d="M87.9784 65.2753C87.7586 64.4702 84.8305 56.5648 73.9975 58.9067C67.629 75.8889 69.9713 82.9164 70.9229 85.9902C66.6037 91.4799 64.6277 92.6513 65.5064 103.777H71.216C73.851 99.6056 74.4367 98.0678 74.5828 92.5781C74.5828 92.3583 73.7781 93.0177 73.192 93.7495C73.6316 91.4804 74.8758 91.0412 75.8274 89.6504C76.2666 89.0643 76.6325 88.1864 76.6325 87.015C81.7564 83.575 83.6596 79.2561 84.7573 74.7908C85.636 71.7166 86.6605 66.666 87.978 65.2748" fill="#EFEFEF"/>
<path d="M69.8981 53.4902C69.8981 53.4902 71.8745 53.5635 73.6316 54.1492C75.3154 54.7345 75.3154 55.1004 75.974 55.8326C76.6329 56.5653 78.2431 57.6625 77.9504 58.7606C77.8039 59.3463 77.438 59.4924 76.9256 60.0049C76.7058 60.2247 75.0952 61.9813 74.7297 62.2007C74.51 62.3472 74.2169 62.567 73.9975 62.7136L72.8998 63.4454C72.1676 63.8117 71.6552 64.0311 70.8501 63.9578C70.8501 63.9578 69.0202 63.8845 67.8488 62.6403C67.8488 62.6403 67.7022 62.0542 67.9953 61.762C67.9953 61.762 66.458 60.444 66.0189 59.5657C65.5793 58.6878 65.5793 57.4436 65.8723 56.7846C66.0189 56.1252 68.8732 54.2953 69.8981 53.4902ZM71.7284 124.713L71.5086 126.543C71.5086 126.543 70.8501 127.348 65.946 127.275C60.9682 127.201 59.6507 125.665 59.2116 124.859L58.9189 122.956C58.9189 122.956 59.8705 121.565 60.0903 121.565C61.7005 121.712 67.1907 123.907 70.9971 124.493C71.3621 124.493 71.4354 124.639 71.7284 124.713ZM82.3421 120.979C82.3421 121.784 82.2688 121.784 82.2688 122.59C83.1471 123.249 85.3434 123.615 89.5153 123.541C95.5907 123.395 101.227 125.372 108.108 124.2L108.181 122.882L107.522 122.809L83.1472 120.833L82.3421 120.979Z" fill="black"/>
<path d="M87.6854 123.542H89.5153C93.4686 123.395 97.2018 124.273 101.227 124.493C103.35 124.42 105.985 123.907 105.766 122.37L84.9775 120.613C83.7329 122.004 84.6845 123.175 87.6854 123.542ZM63.8226 92.7246C64.4816 93.1642 68.9469 95.7992 76.1934 95.4329C76.0468 96.8236 76.1201 99.5323 72.8994 104.29C71.2889 106.632 69.8977 110.732 69.6055 115.929C69.6787 117.1 70.3373 118.125 69.4589 119.662C69.752 120.613 70.923 122.517 71.5087 123.688C72.0939 124.859 72.387 126.177 68.5069 126.25C64.5544 126.323 58.1859 125.883 59.0647 122.81C59.5042 121.199 60.7485 119.516 60.895 118.857C61.0415 118.198 61.0415 116.222 62.2853 114.904C63.3835 111.244 63.0176 107.731 62.7982 104.437C62.4319 100.996 62.3586 95.5066 63.8226 92.725M70.6303 33.068C75.8275 26.1137 71.4354 20.5511 63.0913 22.2341C59.7236 22.8931 56.3568 25.2358 56.137 29.481C55.0389 29.6275 52.5504 29.7736 51.3058 34.3122C50.3546 37.8255 49.8422 38.4841 48.1584 40.2407C47.0602 41.4854 48.2316 44.0471 49.0367 45.8779C51.745 52.1727 60.0895 52.758 65.7258 57.516C67.629 57.0035 69.6055 54.881 70.1907 53.4907C65.4328 47.8535 66.4576 45.6581 64.5544 42.73C66.6042 41.9974 71.2889 39.1439 70.6303 33.068Z" fill="black"/>
<path d="M69.6054 32.6288C69.8976 32.1892 70.4105 31.2381 70.6303 30.8717C70.7036 30.7985 71.5086 32.1892 71.5819 32.1164C73.5579 28.8953 74.0704 24.2105 71.8013 23.7714C71.2884 23.6981 70.3372 23.4787 69.5322 23.1853C68.0681 22.6733 66.7507 22.6733 64.4079 23.1124C61.1876 23.6981 57.9669 26.0405 57.9669 29.4077C57.9669 29.6275 60.2356 30.286 60.8945 32.9947C59.7964 31.457 57.8932 29.7736 55.6237 31.2376C53.2085 32.7745 54.4527 36.2882 51.2321 39.9477C50.1339 41.1923 50.2805 42.6563 51.4519 45.5844C53.3546 50.1958 62.3581 52.6847 67.2627 57.0764C68.4336 56.5639 69.2387 55.393 69.8244 54.5147C66.5304 51.0742 65.2129 47.8535 64.2613 45.5111C63.0904 42.8029 61.7724 41.266 59.2103 39.2154C60.5282 39.7283 61.5535 40.2403 62.1383 40.6794C62.7969 41.119 63.7485 41.1923 64.6272 40.8992C67.7755 39.802 69.4589 35.4099 69.605 32.6288" fill="#EFEFEF"/>
<path d="M101.447 33.7998C101.227 36.5813 99.1777 35.1905 98.08 34.6781C95.8837 33.7265 93.6875 33.068 91.1258 33.068C88.5636 33.068 85.2697 33.2878 82.4153 34.0196C78.4628 35.1172 77.291 35.0444 75.5343 34.1657C73.7781 33.2141 70.7039 30.8717 70.7039 30.8717C70.7039 30.8717 70.6307 31.6039 71.3625 32.5555C72.3136 33.7265 74.4371 35.1905 77.2914 36.1417C78.6822 36.5813 79.7803 36.2882 81.025 35.9956C87.5396 34.3855 94.4197 34.0924 100.203 37.6057C100.496 37.7522 101.52 37.3126 101.96 36.6541C102.544 35.7029 101.447 33.7998 101.447 33.7998Z" fill="black"/>
<path d="M68.1414 61.6882C68.7271 62.0546 69.4589 62.2744 70.2639 62.9329C70.2639 62.9329 69.6054 62.9329 69.3128 62.6403C68.9464 62.4205 68.2146 61.7619 68.1414 61.6882Z" fill="#001423"/>
<path d="M89.2959 3.64169C89.0761 2.98316 87.4656 1.81177 83.7329 1.81177C79.7067 1.81177 78.5353 3.056 78.4629 3.71496C78.4629 3.93476 78.1698 6.27711 78.0966 7.22828C78.0966 7.22828 78.0966 8.39967 78.1698 10.1563C78.2431 11.3273 78.5357 11.9863 78.6818 13.5236C78.8284 15.1332 79.268 16.1585 80.0726 17.476C80.4389 17.6954 80.7315 17.9156 81.0974 17.9889C82.5615 18.2811 85.1236 18.3544 86.5144 17.9889C87.3195 17.7691 88.3443 16.3783 88.5637 15.1337C88.8567 13.5968 89.1494 12.4987 89.2226 11.5471C89.3692 10.5959 89.4424 8.47294 89.5153 7.88724C89.7351 6.27711 89.3687 3.78823 89.2955 3.64212" fill="#EFEFEF"/>
<path d="M81.6098 94.1157C81.6098 94.1157 85.4899 95.7991 95.0787 94.3351C95.0787 94.3351 92.3705 107.95 93.6151 114.757C93.6151 114.757 94.8593 116.514 104.082 119.881C104.082 119.881 108.181 120.906 108.035 122.956C108.035 122.956 108.182 123.395 103.204 123.248C98.227 123.102 93.5414 122.224 90.2479 122.224C86.954 122.224 83.4402 122.37 82.8549 121.419C82.196 120.54 83.0015 118.271 83.9526 116.953C84.9784 115.563 84.6849 114.538 84.612 112.049C84.3914 105.534 79.414 98.8004 81.6098 94.1157Z" fill="black"/>
<path d="M80.8048 95.36C80.292 96.0923 80.8777 98.8734 81.6099 101.582C82.3417 104.29 83.9523 105.9 84.3182 110.365C84.6845 114.757 84.7578 115.343 83.5131 117.905C82.2684 120.467 81.9025 122.809 86.2209 122.883C90.5393 122.956 92.8825 122.809 97.2742 123.468C101.666 124.127 103.204 124.346 105.619 123.981C108.035 123.614 108.547 122.809 107.522 122.078C106.498 121.345 102.252 120.54 100.422 119.076C98.6649 117.758 93.6876 115.562 93.6148 114.977C93.395 113 93.3217 105.827 93.688 103.485C94.0539 101.142 94.5659 97.7752 94.7125 96.8969C94.859 96.0186 95.5908 95.1398 94.3461 95.4329C93.1023 95.7251 88.4176 96.3845 84.9039 96.1647C81.3905 95.9453 81.0251 95.1402 80.8048 95.36Z" fill="#88CE02"/>
<path opacity="0.3" d="M83.2936 117.979C84.5379 118.564 86.3682 119.003 87.7586 119.003C87.7586 119.003 87.2457 121.419 88.0516 122.883C88.8562 124.347 82.1955 123.469 82.1955 123.469L81.9029 118.271L83.2936 117.979ZM102.691 124.273C103.862 123.907 104.668 122.59 103.716 121.346C102.691 120.101 101.813 119.882 103.13 119.808C104.448 119.735 109.279 122.663 109.279 122.663L106.79 124.932L102.691 124.273ZM80.5849 98.2144C82.2688 98.8005 84.8305 98.9466 87.0268 98.8733C89.223 98.8001 92.5165 98.507 94.6395 97.7752C96.7621 97.0434 95.8837 98.5803 95.8837 98.5803L94.7124 99.6784C94.7124 99.6784 91.9313 100.777 87.3931 100.704C82.0494 100.63 80.4388 100.045 80.4388 100.045L80.5849 98.2144ZM80.7315 101.875C82.4153 102.461 84.9766 102.607 87.1728 102.534C89.3687 102.46 92.2972 102.46 94.4197 101.655C95.298 101.362 94.7861 102.607 94.7861 102.607L94.4197 103.265C94.4197 103.265 91.5649 104.29 87.0996 104.217C81.7563 104.144 80.8047 103.704 80.8047 103.704L80.7315 101.875Z" fill="black"/>
<path d="M75.9003 50.5626C75.9003 51.0755 81.6098 53.9294 84.7573 54.5151C87.9051 55.1008 94.493 54.5151 95.5174 54.2957L95.3709 55.3206C95.3709 55.3206 87.5388 56.492 81.5366 54.8814C75.5344 53.2709 76.1933 52.905 76.1933 52.905L75.9003 50.5626Z" fill="black"/>
<path d="M63.676 113.001C64.5544 113.44 67.7022 114.245 69.7515 113.806C70.0441 113.733 69.7515 108.755 70.557 106.486C71.728 103.338 73.6312 100.777 74.5091 95.2135C71.4349 94.9204 67.9216 94.1154 66.0912 93.5297C63.7493 100.703 64.5548 106.852 63.676 113.001ZM68.581 117.612C69.0934 117.759 69.4589 118.344 69.6058 117.979C69.898 117.319 69.093 116.075 69.0197 115.197V115.124C68.3612 114.538 63.8963 114.465 64.1889 114.757C63.6765 115.709 62.8714 115.563 62.5788 117.466C62.4327 118.417 63.6041 117.613 64.7013 117.539C62.7253 118.856 60.4562 120.541 60.0899 122.004C59.6507 124.054 60.3829 124.64 62.5788 125.738C64.4824 126.177 66.7511 126.25 68.5077 126.177C70.4842 125.811 70.8505 124.859 70.2648 123.542C69.3856 121.565 68.8003 119.003 68.581 117.612Z" fill="#EFEFEF"/>
<path d="M69.3861 22.5271C71.8013 23.9179 75.1689 23.552 76.4127 23.4787C76.7058 23.4787 79.6338 22.9663 79.7799 23.0391C80.073 23.1124 80.073 23.3322 80.073 23.3322C80.073 23.3322 78.9749 23.9174 76.486 24.064C74.1436 24.2101 71.3621 24.064 69.8253 23.3322C67.9949 22.5271 69.3861 22.5271 69.3861 22.5271ZM94.2737 23.9179C94.7124 24.2105 97.5676 25.3086 98.8119 26.6261C99.91 27.7975 99.3247 27.7242 99.1045 27.4316C98.8119 27.0653 96.5423 25.528 95.6644 25.1625C94.7861 24.7962 93.6876 24.1377 93.6876 23.9911C93.6876 23.8446 94.2737 23.9179 94.2737 23.9179Z" fill="black"/>
<path d="M69.0197 54.2953C71.1423 54.1487 73.3381 54.6616 74.7293 56.1252C75.4611 56.8574 76.6325 57.6621 76.4859 58.3943C76.4859 58.6141 76.0463 59.1998 75.6813 59.639C75.4615 59.9312 74.803 60.5901 74.5827 60.8099C74.2905 61.0297 73.2652 61.8348 73.0459 61.9813C72.8261 62.1278 72.533 62.4942 72.3136 62.567C71.5823 62.9333 70.7768 62.6403 70.045 62.2744C69.3132 61.9085 70.1915 61.8348 69.386 61.2495C67.41 59.8587 66.3114 58.9067 67.1169 56.1985C67.1902 55.686 67.9948 55.1003 69.0197 54.2953Z" fill="#EFEFEF"/>
<path opacity="0.4" d="M50.3541 37.5334C43.7662 40.1683 27.0038 48.5133 22.2458 51.0755C26.1983 53.564 28.0283 59.5657 28.6144 65.6416C28.6872 66.2278 28.7605 66.7398 28.8338 67.325C28.907 67.8376 28.9801 68.2038 29.0531 68.4236C29.0531 68.4969 29.0531 68.6434 29.1264 68.7158C33.4452 56.9312 48.8897 44.4872 49.4754 43.5356C49.7684 43.0964 49.109 41.1932 50.1343 39.3637C51.4523 37.0209 54.0144 35.9956 50.3541 37.5334ZM66.0188 92.7983C69.3856 86.0643 69.4589 79.6225 69.3856 72.083C69.3856 68.9352 71.6547 64.4702 70.4837 65.7145C66.0921 70.6185 55.0388 79.8419 47.0602 80.3543C58.2595 79.988 62.6516 85.6247 66.0188 92.7983Z" fill="black"/>
<path d="M15.8041 57.2966C19.9764 54.2957 41.57 42.8037 46.7676 41.1931C51.9643 39.5093 50.3537 37.5328 50.3537 37.5328C50.3537 37.5328 29.2725 46.6092 16.6824 54.4418" fill="black"/>
<path opacity="0.4" d="M77.291 36.1426C75.6076 35.4836 74.2901 37.4601 74.7293 39.3633C75.1685 41.2665 79.1209 43.389 78.9011 50.3433C78.755 56.0528 77.5108 58.3948 77.5108 58.3948L74.7293 54.8819C74.7293 54.8819 74.2897 46.9761 73.3385 45.8047C72.3869 44.6337 69.3856 42.5107 68.2142 41.413C67.0433 40.3149 69.5317 38.8509 69.3856 36.8016C69.2391 34.8251 70.6303 30.8722 70.6303 30.8722L77.291 36.1426ZM87.4655 67.325C87.3194 72.8144 88.5645 80.9396 89.0761 84.8197C89.5889 88.6989 90.2475 88.9919 89.0761 90.749C87.9051 92.4324 86.3678 95.214 86.3678 95.214L81.3168 94.7744C81.3168 94.7744 85.343 89.6505 85.5619 88.6989C85.7817 87.7477 83.5126 80.5013 83.5126 80.5013L87.4655 67.325ZM77.7306 16.0863C78.7555 18.3549 79.9997 19.3798 81.9757 20.0387C83.1471 20.4783 87.7586 21.0636 89.5885 19.0139C90.3936 18.0623 89.8816 15.5001 89.8816 15.5001L85.7089 18.8673L80.0725 17.8425L79.414 16.1591L77.7306 16.0863Z" fill="black"/>
<path d="M78.1694 21.1368C80.0726 22.3811 84.8305 23.5525 86.148 23.7718C87.4655 24.0645 89.5885 22.3811 90.613 21.9419C91.7115 21.4295 93.6147 21.1368 95.8105 23.1133C96.0303 23.3331 95.2977 24.2843 95.2977 24.2843C95.2244 24.211 94.7857 24.211 94.1995 23.9179C93.6143 23.6257 93.1018 23.4055 92.2235 23.4792C88.5632 23.9179 87.978 25.1626 84.7573 24.4304C81.5366 23.6981 80.7315 23.1129 77.5841 23.259" fill="#88CE02"/>
<path d="M78.1694 21.1368C80.0726 22.3811 84.8305 23.5525 86.148 23.7718C87.4655 24.0645 89.5885 22.3811 90.613 21.9419C91.7115 21.4295 93.6147 21.1368 95.8105 23.1133C96.0303 23.3331 95.2977 24.2843 95.2977 24.2843C95.2244 24.211 94.7857 24.211 94.1995 23.9179C93.6143 23.6257 93.1018 23.4055 92.2235 23.4792C88.5632 23.9179 87.978 25.1626 84.7573 24.4304C81.5366 23.6981 80.7315 23.1129 77.5841 23.259" stroke="black" stroke-width="1.586" stroke-linejoin="round"/>
<path d="M77.5109 21.3562C79.9265 22.3811 84.6112 23.4792 85.9287 23.7718C87.2462 24.0645 89.3688 22.747 90.3936 22.0884C92.224 20.917 94.5659 21.8686 95.6645 23.1133C96.3959 23.9179 96.6894 24.4308 96.6894 24.6502C96.6894 24.9428 95.811 24.6502 95.811 24.6502C95.2982 24.4304 94.7125 24.3575 94.2737 24.064C93.688 23.7718 93.1023 23.3327 92.2244 23.4055C88.5642 23.8451 87.8324 25.0893 84.6849 24.3571C81.5375 23.6249 80.732 22.9663 77.3652 23.1857" fill="#88CE02"/>
<path d="M66.165 89.7237C66.0185 89.5772 66.3115 89.4306 66.165 89.4306C65.2138 89.4306 63.8959 88.6988 63.1637 87.674C60.0163 83.1358 55.4044 80.1349 47.0598 80.3543C34.543 80.6473 29.5652 75.5234 28.614 65.7149C28.1012 60.3716 26.6376 55.174 23.6362 52.246L21.8792 53.3441C25.2464 56.2722 26.3445 61.0301 27.0767 67.5448C28.2477 77.3534 36.1531 81.892 45.376 82.0381C54.9652 82.1846 58.4057 84.1611 61.9923 88.9923C63.1632 90.5292 64.4812 91.0416 65.5056 91.2614L66.165 89.7237Z" fill="black"/>
<path opacity="0.4" d="M100.129 42.6572C100.349 43.7549 100.934 45.8779 102.105 46.9023C102.618 47.4148 102.692 47.5609 102.252 47.5609C101.812 47.5609 98.5921 47.4148 98.5921 47.4148L97.7137 45.8779L100.129 42.6572Z" fill="black"/>
</g>
<defs>
<clipPath id="clip0_50_315">
<rect width="110.33" height="128" fill="white" transform="translate(0.834961)"/>
</clipPath>
</defs>
</svg>
