<svg width="128" height="128" viewBox="0 0 128 128" fill="none" xmlns="http://www.w3.org/2000/svg">
<g clip-path="url(#clip0_46_294)">
<path d="M98 0H30C13.4315 0 0 13.4315 0 30V98C0 114.569 13.4315 128 30 128H98C114.569 128 128 114.569 128 98V30C128 13.4315 114.569 0 98 0Z" fill="#242938"/>
<path fill-rule="evenodd" clip-rule="evenodd" d="M107.923 39.1571C107.955 39.2791 107.972 39.4035 107.972 39.5306V59.1301C107.972 59.3816 107.907 59.6286 107.783 59.8461C107.659 60.0631 107.48 60.2437 107.264 60.3696L91.041 69.8406V88.6131C91.0418 88.8632 90.9773 89.1093 90.8537 89.3268C90.7301 89.5443 90.5518 89.7257 90.3365 89.8531L56.4725 109.621C56.395 109.665 56.3105 109.694 56.226 109.724C56.194 109.735 56.1645 109.755 56.131 109.764C55.8943 109.827 55.6452 109.827 55.4085 109.764C55.37 109.753 55.3345 109.731 55.2975 109.717C55.22 109.689 55.139 109.664 55.065 109.621L21.208 89.8531C20.9924 89.727 20.8138 89.5464 20.69 89.3296C20.5657 89.1112 20.5002 88.8643 20.5 88.6131V29.8146C20.5007 29.6856 20.5172 29.5606 20.5495 29.4396C20.5595 29.3981 20.5845 29.3606 20.5985 29.3196C20.625 29.2446 20.6495 29.1681 20.6885 29.0981C20.715 29.0516 20.7535 29.0141 20.7855 28.9716C20.8255 28.9141 20.863 28.8551 20.9105 28.8051C20.9505 28.7641 21.004 28.7336 21.0495 28.6981C21.1005 28.6551 21.1465 28.6086 21.2045 28.5746H21.2065L38.135 18.6911C38.349 18.5664 38.5921 18.5007 38.8397 18.5007C39.0874 18.5007 39.3305 18.5664 39.5445 18.6911L56.474 28.5746H56.4775C56.5335 28.6106 56.5815 28.6551 56.6325 28.6961C56.678 28.7321 56.729 28.7641 56.7695 28.8036C56.819 28.8551 56.8545 28.9141 56.8965 28.9716C56.9265 29.0141 56.967 29.0516 56.9915 29.0981C57.032 29.1696 57.055 29.2446 57.0835 29.3196C57.0975 29.3606 57.122 29.3981 57.1325 29.4411C57.1648 29.5634 57.1813 29.6879 57.182 29.8146V66.5396L71.289 58.3031V39.5281C71.289 39.4031 71.3065 39.2766 71.3385 39.1571C71.351 39.1141 71.3735 39.0766 71.388 39.0356C71.416 38.9606 71.4405 38.8836 71.4795 38.8141C71.506 38.7676 71.5445 38.7301 71.5745 38.6871C71.617 38.6301 71.652 38.5711 71.7015 38.5211C71.742 38.4801 71.793 38.4496 71.839 38.4136C71.8915 38.3711 71.9375 38.3246 71.994 38.2906H71.996L88.927 28.4066C89.1407 28.2815 89.3839 28.2156 89.6315 28.2156C89.8791 28.2156 90.1223 28.2815 90.336 28.4066L107.266 38.2906C107.326 38.3266 107.371 38.3706 107.424 38.4121C107.468 38.4476 107.519 38.4801 107.56 38.5191C107.609 38.5711 107.644 38.6301 107.687 38.6871C107.718 38.7301 107.757 38.7671 107.782 38.8141C107.822 38.8841 107.845 38.9606 107.873 39.0356C107.889 39.0766 107.912 39.1141 107.923 39.1571ZM105.149 58.3031V42.0046L99.225 45.4626L91.0405 50.2411V66.5396L105.151 58.3031H105.149ZM88.22 87.7861V71.4771L80.1695 76.1396L57.18 89.4441V105.907L88.22 87.7861ZM23.322 32.2886V87.7861L54.3585 105.905V89.4456L38.1445 80.1406L38.1395 80.1371L38.132 80.1336C38.0775 80.1016 38.032 80.0551 37.9805 80.0156C37.9365 79.9801 37.8855 79.9516 37.847 79.9121L37.8435 79.9071C37.7975 79.8621 37.7655 79.8071 37.727 79.7566C37.692 79.7086 37.6495 79.6676 37.6215 79.6176L37.6195 79.6121C37.5875 79.5586 37.568 79.4941 37.5455 79.4336C37.5225 79.3801 37.4925 79.3301 37.4785 79.2726V79.2706C37.461 79.2031 37.4575 79.1316 37.45 79.0616C37.443 79.0081 37.429 78.9546 37.429 78.9011V40.5256L29.2465 35.7451L23.322 32.2901V32.2886ZM38.842 21.5811L24.737 29.8151L38.8385 38.0481L52.942 29.8131L38.8385 21.5816L38.842 21.5811ZM46.1775 72.9631L54.3605 68.1866V32.2886L48.4355 35.7471L40.2515 40.5251V76.4236L46.1775 72.9631ZM89.632 31.2971L75.528 39.5306L89.632 47.7636L103.733 39.5286L89.632 31.2971ZM88.2205 50.2411L80.036 45.4626L74.112 42.0046V58.3031L82.2945 63.0796L88.2205 66.5396V50.2411ZM55.768 86.9701L76.4545 74.9941L86.7955 69.0101L72.7025 60.7821L56.476 70.2551L41.687 78.8885L55.768 86.9701Z" fill="#FF2D20"/>
</g>
<defs>
<clipPath id="clip0_46_294">
<rect width="128" height="128" fill="white"/>
</clipPath>
</defs>
</svg>
