<svg width="129" height="129" viewBox="0 0 129 129" fill="none" xmlns="http://www.w3.org/2000/svg">
<g clip-path="url(#clip0_46_306)">
<path d="M95.5345 120.547C95.0585 120.799 95.0985 120.879 95.5545 120.647C95.6954 120.59 95.8244 120.507 95.9345 120.403C95.9345 120.319 95.9345 120.319 95.5345 120.547ZM96.4945 120.027C96.2665 120.215 96.2665 120.215 96.5385 120.091C96.6374 120.041 96.7289 119.978 96.8105 119.903C96.8105 119.795 96.7465 119.819 96.4945 120.027ZM97.1185 119.651C96.8905 119.839 96.8905 119.839 97.1625 119.715C97.2616 119.664 97.3532 119.599 97.4345 119.523C97.4345 119.423 97.3705 119.443 97.1185 119.651ZM97.7505 119.279C97.5225 119.467 97.5225 119.467 97.7865 119.339C97.9345 119.259 98.0584 119.175 98.0584 119.151C98.0584 119.051 97.9945 119.071 97.7505 119.279ZM98.6025 118.715C98.1665 119.007 98.0145 119.195 98.4145 118.987C98.6825 118.823 99.1384 118.463 99.0584 118.463C98.8864 118.527 98.7424 118.635 98.5984 118.715H98.6025ZM60.3505 0.57066C60.0585 0.59066 59.1825 0.67066 58.4145 0.73466C40.2225 2.38266 23.2025 12.1747 12.4145 27.2587C6.4488 35.5295 2.57318 45.1211 1.11845 55.2147C0.602452 58.7347 0.538452 59.7747 0.538452 64.5467C0.538452 69.3147 0.602452 70.3387 1.11845 73.8587C4.60245 97.9027 21.7065 118.087 44.8905 125.567C49.0625 126.899 53.4345 127.819 58.4145 128.383C60.3505 128.591 68.7225 128.591 70.6585 128.383C79.2665 127.423 86.5345 125.299 93.7265 121.631C94.8305 121.071 95.0384 120.923 94.8904 120.799C91.382 116.161 87.9033 111.501 84.4545 106.819L74.2265 93.0067L61.4145 74.0267C57.1528 67.6717 52.8474 61.3462 48.4985 55.0507C48.4545 55.0507 48.3985 63.4867 48.3745 73.7747C48.3305 91.7947 48.3305 92.5267 48.1025 92.9427C47.8844 93.4456 47.4925 93.8531 46.9985 94.0907C46.6025 94.2787 46.2465 94.3187 44.3545 94.3187H42.1905L41.6265 93.9667C41.2738 93.7393 40.9869 93.4235 40.7945 93.0507L40.5225 92.4867L40.5425 67.4027L40.5865 42.3187L40.9825 41.8187C41.2387 41.5146 41.5493 41.2609 41.8985 41.0707C42.4225 40.8187 42.6305 40.7787 44.7945 40.7787C47.3345 40.7787 47.7545 40.8787 48.4225 41.6107C53.6126 49.3302 58.758 57.0796 63.8585 64.8587C72.1745 77.4667 83.5265 94.6707 89.1065 103.111L99.2545 118.467L99.7545 118.135C104.63 114.892 109.049 111.011 112.894 106.595C120.956 97.3664 126.187 86.0107 127.962 73.8867C128.478 70.3667 128.542 69.3227 128.542 64.5547C128.542 59.7867 128.478 58.7627 127.962 55.2427C124.478 31.1987 107.374 11.0147 84.1905 3.53066C79.8574 2.15879 75.3978 1.22478 70.8784 0.74266C69.6664 0.61866 61.3945 0.47066 60.3545 0.57866L60.3505 0.57066ZM86.5385 39.2787C86.8364 39.4242 87.1022 39.6281 87.32 39.8782C87.5378 40.1283 87.7032 40.4195 87.8064 40.7347C87.9144 41.0707 87.9345 48.0267 87.9145 63.6947L87.8705 86.1907L83.9145 80.1107L79.9345 74.0267V57.6947C79.9345 47.1067 79.9785 41.1707 80.0345 40.8787C80.2303 40.2091 80.6794 39.6423 81.2865 39.2987C81.7825 39.0467 81.9745 39.0267 83.9545 39.0267C85.8065 39.0267 86.1225 39.0467 86.5385 39.2787Z" fill="black"/>
</g>
<defs>
<clipPath id="clip0_46_306">
<rect width="128" height="128" fill="white" transform="translate(0.538452 0.526611)"/>
</clipPath>
</defs>
</svg>
