<svg width="128" height="132" viewBox="0 0 128 132" fill="none" xmlns="http://www.w3.org/2000/svg">
<g clip-path="url(#clip0_46_278)">
<path d="M127.504 79.043C126.737 76.7185 124.726 75.0995 122.126 74.711C120.9 74.528 119.496 74.606 117.835 74.9485C114.939 75.546 112.79 75.7735 111.222 75.8175C117.141 65.825 121.953 54.43 124.724 43.7035C129.204 26.359 126.81 18.4575 124.012 14.8835C116.609 5.42352 105.807 0.341516 92.776 0.186016C85.8245 0.101016 79.722 1.47352 76.5385 2.46052C73.5745 1.93752 70.3876 1.64552 67.0436 1.59152C60.7751 1.49152 55.2366 2.85802 50.5041 5.66652C47.8841 4.78052 43.6791 3.53152 38.8231 2.73452C27.4021 0.859516 18.1971 2.32052 11.4641 7.07702C3.31106 12.836 -0.468444 22.842 0.230556 36.817C0.452556 41.254 2.93456 54.754 6.84256 67.557C9.08856 74.916 11.4836 81.027 13.9611 85.722C17.4746 92.3795 21.2341 96.3 25.4546 97.708C27.8201 98.496 32.1181 99.048 36.6386 95.283C37.2116 95.977 37.9761 96.6665 38.9906 97.307C40.2791 98.1195 41.8546 98.7835 43.4281 99.177C49.0986 100.595 54.4101 100.24 58.9416 98.253C58.9696 99.059 58.9911 99.829 59.0091 100.494C59.0391 101.573 59.0691 102.63 59.1086 103.619C59.3771 110.306 59.8321 115.506 61.1801 119.144C61.2541 119.344 61.3536 119.649 61.4586 119.972C62.1311 122.031 63.2556 125.478 66.1166 128.178C69.0791 130.974 72.6626 131.832 75.9446 131.832C77.5906 131.832 79.161 131.616 80.5385 131.321C85.4485 130.268 91.025 128.665 95.059 122.921C98.873 117.491 100.727 109.313 101.063 96.426C101.106 96.0613 101.147 95.7133 101.185 95.382L101.265 94.701L102.163 94.78L102.395 94.7955C107.396 95.0235 113.511 93.963 117.266 92.2185C120.234 90.8415 129.743 85.821 127.504 79.043Z" fill="black"/>
<path d="M118.953 80.361C104.083 83.4285 103.061 78.394 103.061 78.394C118.761 55.0975 125.324 25.526 119.661 18.2885C104.209 -1.45402 77.461 7.88298 77.0145 8.12498L76.871 8.15098C73.933 7.54098 70.6455 7.17797 66.95 7.11747C60.222 7.00747 55.118 8.88147 51.245 11.8185C51.245 11.8185 3.53004 -7.83852 5.74954 36.5405C6.22154 45.9815 19.2815 107.977 34.8585 89.2515C40.552 82.404 46.0535 76.6145 46.0535 76.6145C48.7855 78.4295 52.0565 79.3555 55.4855 79.023L55.752 78.797C55.669 79.647 55.707 80.4785 55.8585 81.463C51.8455 85.9465 53.025 86.7335 45.003 88.385C36.8855 90.058 41.654 93.036 44.7675 93.815C48.542 94.7585 57.274 96.0955 63.174 87.836L62.939 88.7785C64.511 90.038 65.615 96.97 65.43 103.254C65.245 109.538 65.1215 113.853 66.36 117.223C67.5995 120.593 68.834 128.175 79.38 125.916C88.1915 124.027 92.758 119.134 93.3935 110.971C93.844 105.168 94.8645 106.026 94.9285 100.837L95.747 98.3815C96.6905 90.515 95.897 87.977 101.326 89.1575L102.646 89.2735C106.641 89.455 111.871 88.6305 114.94 87.204C121.549 84.137 125.469 79.0155 118.952 80.361H118.953Z" fill="#336791"/>
<path d="M54.038 40.7625C52.698 40.576 51.4845 40.7485 50.8705 41.2135C50.5255 41.475 50.4185 41.778 50.3895 41.9865C50.3125 42.539 50.6995 43.15 50.9375 43.465C51.6105 44.357 52.5935 44.97 53.5665 45.105C53.7075 45.1247 53.8478 45.1343 53.9875 45.134C55.61 45.134 57.0855 43.8705 57.2155 42.938C57.378 41.77 55.6825 40.991 54.038 40.7625ZM98.43 40.7995C98.302 39.884 96.673 39.623 95.127 39.838C93.583 40.053 92.086 40.75 92.211 41.6675C92.311 42.381 93.5995 43.599 95.1245 43.599C95.2535 43.599 95.3835 43.59 95.5145 43.572C96.5325 43.431 97.2795 42.7845 97.6345 42.412C98.1745 41.844 98.4875 41.211 98.43 40.7995Z" fill="white"/>
<path d="M123.901 80.0125C123.334 78.298 121.509 77.7465 118.477 78.3725C109.474 80.2305 106.25 78.9435 105.192 78.164C112.189 67.504 117.946 54.618 121.051 42.5955C122.522 36.9005 123.335 31.6115 123.401 27.3005C123.475 22.569 122.669 19.092 121.007 16.968C114.306 8.40547 104.471 3.81247 92.566 3.68647C84.3815 3.59447 77.4665 5.68897 76.126 6.27797C73.303 5.57597 70.2255 5.14497 66.875 5.08997C60.731 4.99047 55.42 6.46147 51.023 9.45997C49.113 8.74897 44.177 7.05447 38.1405 6.08197C27.7045 4.40197 19.4115 5.67497 13.4935 9.86747C6.43197 14.8705 3.17197 23.8135 3.80347 36.4475C4.01597 40.698 6.43797 53.774 10.26 66.2965C15.291 82.7785 20.76 92.109 26.514 94.0285C27.1875 94.253 27.964 94.41 28.8205 94.41C30.9195 94.41 33.493 93.464 36.1705 90.245C39.4363 86.3273 42.8145 82.5047 46.301 78.782C48.563 79.996 51.048 80.674 53.5895 80.742C53.5948 80.8086 53.6006 80.875 53.607 80.941C53.1695 81.4627 52.7411 81.9919 52.322 82.5285C50.561 84.764 50.1945 85.2295 44.526 86.3965C42.9135 86.7295 38.631 87.612 38.568 90.614C38.5 93.894 43.6305 95.2715 44.215 95.4175C46.252 95.9275 48.2145 96.179 50.086 96.179C54.6375 96.179 58.643 94.683 61.844 91.7885C61.7455 103.481 62.233 115.003 63.637 118.514C64.787 121.388 67.596 128.411 76.469 128.411C77.771 128.411 79.204 128.259 80.7805 127.921C90.041 125.936 94.0625 121.843 95.618 112.82C96.4505 107.997 97.879 96.482 98.551 90.305C99.969 90.7475 101.794 90.95 103.768 90.9495C107.884 90.9495 112.633 90.075 115.612 88.6925C118.958 87.1385 124.996 83.3255 123.901 80.0125ZM101.848 38.2725C101.817 40.096 101.566 41.7515 101.3 43.4795C101.014 45.338 100.718 47.2595 100.643 49.592C100.57 51.862 100.853 54.222 101.127 56.5045C101.681 61.1145 102.25 65.8605 100.049 70.5435C99.6845 69.8955 99.3589 69.2261 99.0745 68.539C98.801 67.876 98.207 66.811 97.3845 65.337C94.185 59.599 86.6925 46.162 90.528 40.679C91.6705 39.047 94.57 37.369 101.848 38.2725ZM93.026 7.37897C103.693 7.61447 112.131 11.605 118.105 19.239C122.687 25.0945 117.641 51.738 103.035 74.7235C102.888 74.5367 102.74 74.3505 102.592 74.165L102.407 73.934C106.181 67.7005 105.443 61.533 104.786 56.065C104.516 53.821 104.261 51.7015 104.326 49.7105C104.393 47.6005 104.672 45.7905 104.942 44.0405C105.274 41.884 105.611 39.6525 105.518 37.022C105.588 36.746 105.616 36.42 105.579 36.033C105.342 33.5105 102.462 25.961 96.592 19.128C93.381 15.3905 88.6985 11.208 82.305 8.38697C85.055 7.81697 88.8155 7.28547 93.026 7.37897ZM33.337 87.889C30.387 91.436 28.35 90.756 27.68 90.533C23.315 89.077 18.25 79.851 13.7845 65.221C9.92047 52.562 7.66247 39.8325 7.48347 36.263C6.91947 24.974 9.65597 17.1065 15.6175 12.8785C25.3195 5.99847 41.2705 10.1165 47.68 12.205C47.588 12.296 47.492 12.381 47.401 12.4735C36.883 23.0955 37.1325 41.2435 37.1585 42.353C37.1575 42.781 37.1935 43.387 37.2425 44.2205C37.4235 47.273 37.7605 52.954 36.8605 59.3875C36.0245 65.366 37.8675 71.2175 41.916 75.442C42.3313 75.8748 42.768 76.2867 43.2245 76.676C41.4225 78.606 37.506 82.874 33.337 87.889ZM44.5765 72.8925C41.3135 69.4875 39.8315 64.7515 40.51 59.8975C41.46 53.1015 41.1095 47.1825 40.921 44.0025C40.8945 43.5575 40.871 43.1675 40.8575 42.86C42.394 41.4975 49.5145 37.6825 54.5925 38.846C56.9095 39.3765 58.3215 40.9545 58.9085 43.6685C61.9465 57.72 59.3105 63.5765 57.1925 68.283C56.756 69.2525 56.3435 70.169 55.9915 71.117L55.7185 71.85C55.0275 73.703 54.3845 75.426 53.986 77.062C50.517 77.052 47.1425 75.57 44.5765 72.892M45.109 91.842C44.096 91.589 43.185 91.1495 42.6505 90.785C43.097 90.575 43.8915 90.289 45.2695 90.005C51.938 88.6325 52.968 87.6635 55.217 84.808C55.7325 84.153 56.317 83.411 57.1265 82.507L57.1275 82.506C58.333 81.156 58.8845 81.385 59.8845 81.8C60.695 82.135 61.4845 83.151 61.8045 84.269C61.956 84.797 62.126 85.799 61.5695 86.579C56.8715 93.157 50.0255 93.0725 45.109 91.842ZM80.0085 124.318C71.8505 126.066 68.962 121.903 67.0585 117.145C65.83 114.073 65.226 100.22 65.6545 84.9215C65.66 84.718 65.631 84.5215 65.575 84.3365C65.5249 83.9711 65.4488 83.6099 65.347 83.2555C64.71 81.0295 63.1575 79.1675 61.295 78.3955C60.555 78.089 59.197 77.5265 57.565 77.944C57.913 76.51 58.5165 74.8905 59.171 73.137L59.4455 72.3995C59.7545 71.568 60.1425 70.7065 60.5525 69.7945C62.769 64.8705 65.8045 58.126 62.51 42.8895C61.276 37.1825 57.155 34.3955 50.908 35.043C47.163 35.4305 43.7365 36.9415 42.0275 37.808C41.66 37.994 41.324 38.174 41.01 38.349C41.487 32.599 43.289 21.853 50.03 15.054C54.2745 10.774 59.927 8.65997 66.814 8.77397C80.384 8.99597 89.086 15.96 93.997 21.7635C98.229 26.764 100.52 31.8015 101.435 34.5185C94.5575 33.819 89.88 35.1765 87.509 38.5665C82.3505 45.9405 90.331 60.2525 94.1665 67.131C94.87 68.3915 95.477 69.481 95.668 69.944C96.917 72.971 98.534 74.992 99.7145 76.467C100.076 76.919 100.427 77.3575 100.694 77.7405C98.6115 78.341 94.87 79.7285 95.211 86.664C94.936 90.144 92.9805 106.437 91.987 112.193C90.6755 119.798 87.877 122.63 80.0085 124.318ZM114.06 85.3505C111.93 86.339 108.366 87.0805 104.98 87.24C101.24 87.415 99.336 86.821 98.888 86.4555C98.678 82.1335 100.286 81.682 101.989 81.204C102.256 81.129 102.517 81.0555 102.769 80.9675C102.926 81.0951 103.098 81.2211 103.285 81.3455C106.291 83.3295 111.653 83.5435 119.222 81.981L119.305 81.9645C118.284 82.919 116.537 84.2 114.06 85.3505Z" fill="white"/>
</g>
<defs>
<clipPath id="clip0_46_278">
<rect width="128" height="132" fill="white"/>
</clipPath>
</defs>
</svg>
