<svg width="128" height="128" viewBox="0 0 128 128" fill="none" xmlns="http://www.w3.org/2000/svg">
<path fill-rule="evenodd" clip-rule="evenodd" d="M64 8C75.0758 8 85.9028 11.2843 95.1119 17.4377C104.321 23.5911 111.499 32.3371 115.737 42.5697C119.976 52.8024 121.085 64.0621 118.924 74.9251C116.763 85.788 111.43 95.7662 103.598 103.598C95.7662 111.43 85.788 116.763 74.9251 118.924C64.0621 121.085 52.8024 119.976 42.5697 115.737C32.3371 111.499 23.5911 104.321 17.4377 95.1119C11.2843 85.9028 8 75.0758 8 64C8 49.1479 13.9 34.9041 24.402 24.402C34.9041 13.9 49.1479 8 64 8Z" fill="#CC6699"/>
<path d="M99.128 31.968C96.592 22.024 80.1 18.768 64.492 24.296C54.7171 27.5801 45.686 32.7604 37.916 39.54C29.32 47.58 27.948 54.58 28.512 57.504C30.512 67.824 44.644 74.568 50.456 79.572V79.6C48.744 80.444 36.2 86.8 33.256 93.28C30.16 100.128 33.748 105.04 36.128 105.7C39.7013 106.56 43.4543 106.28 46.8603 104.899C50.2664 103.518 53.1547 101.106 55.12 98C56.7454 95.4842 57.7623 92.6243 58.09 89.647C58.4177 86.6698 58.0473 83.6572 57.008 80.848C59.8069 80.1328 62.7177 79.9657 65.58 80.356C75.404 81.504 77.332 87.636 76.964 90.204C76.7909 91.1181 76.4231 91.9842 75.8854 92.7435C75.3477 93.5027 74.6528 94.1373 73.848 94.604C73.16 95.032 72.948 95.176 73.008 95.496C73.092 95.956 73.408 95.94 73.996 95.84C75.4723 95.3751 76.7732 94.4738 77.7271 93.2549C78.6811 92.0361 79.2434 90.5568 79.34 89.012C79.576 83.012 73.812 76.268 63.604 76.44C60.6391 76.3527 57.6802 76.7582 54.848 77.64L54.416 77.16C48.104 70.428 36.44 65.664 36.932 56.612C37.112 53.32 38.256 44.656 59.332 34.144C76.612 25.532 90.444 27.904 92.836 33.156C96.252 40.66 85.444 54.6 67.5 56.612C65.5167 57.0146 63.4682 56.9655 61.5065 56.4684C59.5448 55.9712 57.7202 55.0387 56.168 53.74C55.224 52.7 55.084 52.656 54.732 52.848C54.16 53.164 54.524 54.084 54.732 54.628C55.4193 55.8662 56.3468 56.9547 57.4602 57.8298C58.5736 58.7048 59.8505 59.3488 61.216 59.724C68.2713 61.2548 75.6293 60.5271 82.248 57.644C93.132 53.448 101.62 41.748 99.128 31.968ZM52.872 82.652C53.6626 85.3913 53.6223 88.3037 52.756 91.02C52.6627 91.3027 52.56 91.5827 52.448 91.86C52.336 92.1374 52.2147 92.404 52.084 92.66C51.4065 94.0348 50.5349 95.3051 49.496 96.432C46.244 99.98 41.696 101.324 39.748 100.192C37.644 98.972 38.696 93.968 42.468 89.98C45.3674 87.1152 48.7087 84.7354 52.364 82.932L52.872 82.652Z" fill="white"/>
</svg>
