<svg width="128" height="128" viewBox="0 0 128 128" fill="none" xmlns="http://www.w3.org/2000/svg">
<g clip-path="url(#clip0_46_300)">
<path d="M98 0H30C13.4315 0 0 13.4315 0 30V98C0 114.569 13.4315 128 30 128H98C114.569 128 128 114.569 128 98V30C128 13.4315 114.569 0 98 0Z" fill="#007ACC"/>
<path d="M28.3055 64.4245L28.265 69.6665H44.925V117.006H56.7095V69.6665H73.3695V64.526C73.3695 61.6815 73.309 59.3045 73.2275 59.2435C73.1665 59.1625 63.028 59.1215 50.736 59.142L28.3665 59.203L28.3055 64.4245ZM103.284 59.054C106.534 59.867 109.013 61.3095 111.289 63.666C112.467 64.926 114.214 67.222 114.357 67.7705C114.397 67.933 108.83 71.6715 105.458 73.764C105.336 73.8455 104.848 73.317 104.299 72.5045C102.654 70.107 100.927 69.0705 98.285 68.888C94.4045 68.6235 91.9055 70.6555 91.926 74.0485C91.926 75.044 92.068 75.633 92.4745 76.446C93.3275 78.2135 94.9125 79.27 99.8905 81.4235C109.054 85.3655 112.975 87.966 115.413 91.6635C118.136 95.788 118.745 102.371 116.896 107.268C114.865 112.591 109.826 116.207 102.735 117.406C100.541 117.792 95.339 117.731 92.9825 117.305C87.842 116.39 82.966 113.851 79.959 110.519C78.7805 109.218 76.4845 105.825 76.627 105.581C76.6875 105.5 77.216 105.175 77.805 104.83C78.374 104.505 80.528 103.265 82.5595 102.087L86.237 99.953L87.009 101.091C88.086 102.737 90.4425 104.992 91.865 105.744C95.9485 107.898 101.557 107.593 104.32 105.114C105.498 104.037 105.986 102.92 105.986 101.274C105.986 99.7905 105.803 99.1405 105.031 98.023C104.035 96.601 102.004 95.402 96.233 92.903C89.63 90.0585 86.7855 88.291 84.185 85.487C82.6815 83.862 81.259 81.261 80.67 79.087C80.1825 77.279 80.0605 72.748 80.4465 70.9195C81.8075 64.54 86.623 60.0905 93.5715 58.7695C95.827 58.343 101.069 58.5055 103.284 59.054Z" fill="white"/>
</g>
<defs>
<clipPath id="clip0_46_300">
<rect width="128" height="128" fill="white"/>
</clipPath>
</defs>
</svg>
